<?xml version="1.0" encoding="UTF-8"?>
<svg version="1.1" xmlns="http://www.w3.org/2000/svg" width="512" height="512">
<path d="M0 0 C10.95571706 9.18866592 19.26583519 23.01786068 20.64672852 37.421875 C21.16633032 48.24194827 20.67174422 58.00842135 16.42578125 68.1171875 C16.09835937 68.97183594 15.7709375 69.82648438 15.43359375 70.70703125 C9.49593759 84.42431719 -2.32563451 93.32634865 -15.515625 99.4921875 C-29.14760411 104.61084458 -45.84049658 103.94450588 -59.30859375 98.6640625 C-74.27725788 91.57364265 -85.08611245 80.91228815 -90.94921875 65.2421875 C-96.14067519 50.11924918 -94.77801256 33.61787973 -88.25390625 19.19921875 C-80.60126759 4.04030337 -68.23488401 -4.91529786 -52.51171875 -10.6328125 C-34.40103096 -15.72644344 -14.85860545 -10.86775088 0 0 Z " fill="#000000" transform="translate(292.57421875,409.8828125)"/>
<path d="M0 0 C11.79417452 9.09727793 20.18189598 21.98176161 22.42578125 36.87109375 C23.67652078 55.17618797 20.77329339 71.18212765 8.67578125 85.62109375 C-1.38486885 96.31172763 -14.99213504 103.43316629 -29.71484375 104.08984375 C-46.35993325 104.56026383 -60.37832901 101.02127547 -73.44921875 90.05859375 C-83.75733757 80.24133773 -91.21978785 66.54795419 -91.91015625 52.171875 C-92.09169552 42.08390842 -91.53642896 33.30430283 -87.57421875 23.87109375 C-87.24679688 23.01644531 -86.919375 22.16179688 -86.58203125 21.28125 C-80.64437509 7.56396406 -68.82280299 -1.3380674 -55.6328125 -7.50390625 C-37.22705715 -14.41506341 -15.94882785 -10.98697029 0 0 Z " fill="#000000" transform="translate(290.57421875,10.12890625)"/>
<path d="M0 0 C1.09634766 0.433125 1.09634766 0.433125 2.21484375 0.875 C15.54754881 6.78891274 25.57185143 18.69692377 31 32 C31.3196875 32.78246094 31.639375 33.56492188 31.96875 34.37109375 C36.41230194 47.55774558 35.31777782 63.31488416 30 76 C29.71125 76.73089844 29.4225 77.46179688 29.125 78.21484375 C23.21108726 91.54754881 11.30307623 101.57185143 -2 107 C-2.78246094 107.3196875 -3.56492187 107.639375 -4.37109375 107.96875 C-17.55774558 112.41230194 -33.31488416 111.31777782 -46 106 C-46.73089844 105.71125 -47.46179688 105.4225 -48.21484375 105.125 C-61.54754881 99.21108726 -71.57185143 87.30307623 -77 74 C-77.3196875 73.21753906 -77.639375 72.43507813 -77.96875 71.62890625 C-82.41230194 58.44225442 -81.31777782 42.68511584 -76 30 C-75.71125 29.26910156 -75.4225 28.53820312 -75.125 27.78515625 C-69.21108726 14.45245119 -57.30307623 4.42814857 -44 -1 C-43.21753906 -1.3196875 -42.43507812 -1.639375 -41.62890625 -1.96875 C-28.44225442 -6.41230194 -12.68511584 -5.31777782 0 0 Z " fill="#000000" transform="translate(279,203)"/>
</svg>
