<svg width="16" height="16" viewBox="0 0 16 16" fill="none" xmlns="http://www.w3.org/2000/svg">
<g clip-path="url(#clip0_657_5160)">
<path d="M10.5653 10.6669C10.3715 10.6668 10.1801 10.7091 10.0043 10.7906C9.82845 10.8721 9.67252 10.991 9.54733 11.1389L9.38267 11.3335H6.61667L6.45267 11.1389C6.32741 10.9909 6.17137 10.872 5.99543 10.7904C5.8195 10.7089 5.6279 10.6667 5.434 10.6669H1.66667C1.22464 10.6669 0.800716 10.8425 0.488155 11.155C0.175595 11.4676 0 11.8915 0 12.3335H0C0 12.7756 0.175595 13.1995 0.488155 13.5121C0.800716 13.8246 1.22464 14.0002 1.66667 14.0002H14.3333C14.5522 14.0002 14.7689 13.9571 14.9711 13.8733C15.1733 13.7896 15.3571 13.6668 15.5118 13.5121C15.6666 13.3573 15.7894 13.1736 15.8731 12.9713C15.9569 12.7691 16 12.5524 16 12.3335C16 12.1147 15.9569 11.8979 15.8731 11.6957C15.7894 11.4935 15.6666 11.3098 15.5118 11.155C15.3571 11.0003 15.1733 10.8775 14.9711 10.7937C14.7689 10.71 14.5522 10.6669 14.3333 10.6669H10.5653Z" fill="#2BB2FE"/>
<path d="M2.00004 9.33333H5.43404C6.08438 9.33237 6.71257 9.56951 7.20004 9.99999H8.80004C9.28739 9.57019 9.91491 9.33312 10.5647 9.33333H14C14.2242 9.33488 14.4476 9.35945 14.6667 9.40666V5.33333C14.6656 4.4496 14.3141 3.60236 13.6892 2.97747C13.0643 2.35258 12.2171 2.00105 11.3334 1.99999H4.66671C3.78298 2.00105 2.93575 2.35258 2.31085 2.97747C1.68596 3.60236 1.33443 4.4496 1.33337 5.33333V9.40666C1.5525 9.35945 1.77589 9.33488 2.00004 9.33333Z" fill="#2BB2FE"/>
</g>
<defs>
<clipPath id="clip0_657_5160">
<rect width="16" height="16" fill="white"/>
</clipPath>
</defs>
</svg>
