<svg width="16" height="16" viewBox="0 0 16 16" fill="none" xmlns="http://www.w3.org/2000/svg">
<g clip-path="url(#clip0_134_5147)">
<path d="M8.66671 13.3329C8.66671 13.5097 8.59647 13.6793 8.47145 13.8043C8.34642 13.9294 8.17685 13.9996 8.00004 13.9996C7.82323 13.9996 7.65366 13.9294 7.52864 13.8043C7.40361 13.6793 7.33337 13.5097 7.33337 13.3329V12.6663H1.33337C1.33443 13.55 1.68596 14.3972 2.31085 15.0221C2.93575 15.647 3.78298 15.9985 4.66671 15.9996H11.3334C12.2171 15.9985 13.0643 15.647 13.6892 15.0221C14.3141 14.3972 14.6656 13.55 14.6667 12.6663H8.66671V13.3329Z" fill="#EB3D4D"/>
<path d="M11.3334 0H4.66671C3.78298 0.00105857 2.93575 0.352588 2.31085 0.97748C1.68596 1.60237 1.33443 2.4496 1.33337 3.33333V11.3333H14.6667V3.33333C14.6656 2.4496 14.3141 1.60237 13.6892 0.97748C13.0643 0.352588 12.2171 0.00105857 11.3334 0V0Z" fill="#EB3D4D"/>
</g>
<defs>
<clipPath id="clip0_134_5147">
<rect width="16" height="16" fill="white"/>
</clipPath>
</defs>
</svg>
