<svg width="16" height="16" viewBox="0 0 16 16" fill="none" xmlns="http://www.w3.org/2000/svg">
<g clip-path="url(#clip0_134_5135)">
<path d="M12.6667 3.9998H8.66667V1.9998C8.66667 1.82299 8.59643 1.65342 8.47141 1.52839C8.34638 1.40337 8.17681 1.33313 8 1.33313C7.82319 1.33313 7.65362 1.40337 7.5286 1.52839C7.40357 1.65342 7.33333 1.82299 7.33333 1.9998V3.9998H3.33333C2.4496 4.00086 1.60237 4.35238 0.97748 4.97728C0.352588 5.60217 0.00105857 6.4494 0 7.33313L0 9.9998C0.00105857 10.8835 0.352588 11.7308 0.97748 12.3557C1.60237 12.9805 2.4496 13.3321 3.33333 13.3331H12.6667C13.5504 13.3321 14.3976 12.9805 15.0225 12.3557C15.6474 11.7308 15.9989 10.8835 16 9.9998V7.33313C15.9989 6.4494 15.6474 5.60217 15.0225 4.97728C14.3976 4.35238 13.5504 4.00086 12.6667 3.9998ZM6.66667 6.66646H7.33333C7.51014 6.66646 7.67971 6.7367 7.80474 6.86173C7.92976 6.98675 8 7.15632 8 7.33313C8 7.50994 7.92976 7.67951 7.80474 7.80453C7.67971 7.92956 7.51014 7.9998 7.33333 7.9998H6.66667C6.48986 7.9998 6.32029 7.92956 6.19526 7.80453C6.07024 7.67951 6 7.50994 6 7.33313C6 7.15632 6.07024 6.98675 6.19526 6.86173C6.32029 6.7367 6.48986 6.66646 6.66667 6.66646ZM3.33333 10.6665C3.20148 10.6665 3.07259 10.6274 2.96295 10.5541C2.85332 10.4809 2.76787 10.3767 2.71741 10.2549C2.66696 10.1331 2.65375 9.99906 2.67948 9.86974C2.7052 9.74042 2.76869 9.62163 2.86193 9.52839C2.95516 9.43516 3.07395 9.37166 3.20327 9.34594C3.33259 9.32022 3.46664 9.33342 3.58846 9.38388C3.71027 9.43434 3.81439 9.51978 3.88765 9.62942C3.9609 9.73905 4 9.86794 4 9.9998C4 10.1766 3.92976 10.3462 3.80474 10.4712C3.67971 10.5962 3.51014 10.6665 3.33333 10.6665ZM4 7.9998H3.33333C3.15652 7.9998 2.98695 7.92956 2.86193 7.80453C2.7369 7.67951 2.66667 7.50994 2.66667 7.33313C2.66667 7.15632 2.7369 6.98675 2.86193 6.86173C2.98695 6.7367 3.15652 6.66646 3.33333 6.66646H4C4.17681 6.66646 4.34638 6.7367 4.4714 6.86173C4.59643 6.98675 4.66667 7.15632 4.66667 7.33313C4.66667 7.50994 4.59643 7.67951 4.4714 7.80453C4.34638 7.92956 4.17681 7.9998 4 7.9998ZM10 10.6665H6C5.82319 10.6665 5.65362 10.5962 5.5286 10.4712C5.40357 10.3462 5.33333 10.1766 5.33333 9.9998C5.33333 9.82299 5.40357 9.65342 5.5286 9.52839C5.65362 9.40337 5.82319 9.33313 6 9.33313H10C10.1768 9.33313 10.3464 9.40337 10.4714 9.52839C10.5964 9.65342 10.6667 9.82299 10.6667 9.9998C10.6667 10.1766 10.5964 10.3462 10.4714 10.4712C10.3464 10.5962 10.1768 10.6665 10 10.6665ZM12.6667 10.6665C12.5348 10.6665 12.4059 10.6274 12.2963 10.5541C12.1867 10.4809 12.1012 10.3767 12.0507 10.2549C12.0003 10.1331 11.9871 9.99906 12.0128 9.86974C12.0385 9.74042 12.102 9.62163 12.1953 9.52839C12.2885 9.43516 12.4073 9.37166 12.5366 9.34594C12.6659 9.32022 12.8 9.33342 12.9218 9.38388C13.0436 9.43434 13.1477 9.51978 13.221 9.62942C13.2942 9.73905 13.3333 9.86794 13.3333 9.9998C13.3333 10.1766 13.2631 10.3462 13.1381 10.4712C13.013 10.5962 12.8435 10.6665 12.6667 10.6665ZM12.6667 7.9998H10C9.82319 7.9998 9.65362 7.92956 9.5286 7.80453C9.40357 7.67951 9.33333 7.50994 9.33333 7.33313C9.33333 7.15632 9.40357 6.98675 9.5286 6.86173C9.65362 6.7367 9.82319 6.66646 10 6.66646H12.6667C12.8435 6.66646 13.013 6.7367 13.1381 6.86173C13.2631 6.98675 13.3333 7.15632 13.3333 7.33313C13.3333 7.50994 13.2631 7.67951 13.1381 7.80453C13.013 7.92956 12.8435 7.9998 12.6667 7.9998Z" fill="#3250FF"/>
</g>
<defs>
<clipPath id="clip0_134_5135">
<rect width="16" height="16" fill="white"/>
</clipPath>
</defs>
</svg>
