<svg width="18" height="18" viewBox="0 0 18 18" fill="none" xmlns="http://www.w3.org/2000/svg">
<g clip-path="url(#clip0_657_5185)">
<path d="M13.2906 2.24999L12.2309 0.875994C12.0198 0.604349 11.7496 0.384307 11.4409 0.232535C11.1321 0.0807629 10.7929 0.00124156 10.4489 -5.72205e-06L7.55086 -5.72205e-06C7.20683 0.00124156 6.8676 0.0807629 6.55886 0.232535C6.25011 0.384307 5.97996 0.604349 5.76886 0.875994L4.70911 2.24999H13.2906Z" fill="#3250FF"/>
<path d="M9.00012 13.5C10.657 13.5 12.0001 12.1569 12.0001 10.5C12.0001 8.8432 10.657 7.50005 9.00012 7.50005C7.34327 7.50005 6.00012 8.8432 6.00012 10.5C6.00012 12.1569 7.34327 13.5 9.00012 13.5Z" fill="#3250FF"/>
<path d="M14.25 3.74994H3.75C2.7558 3.75113 1.80267 4.1466 1.09966 4.8496C0.396661 5.5526 0.00119089 6.50574 0 7.49993L0 14.2499C0.00119089 15.2441 0.396661 16.1973 1.09966 16.9003C1.80267 17.6033 2.7558 17.9987 3.75 17.9999H14.25C15.2442 17.9987 16.1973 17.6033 16.9003 16.9003C17.6033 16.1973 17.9988 15.2441 18 14.2499V7.49993C17.9988 6.50574 17.6033 5.5526 16.9003 4.8496C16.1973 4.1466 15.2442 3.75113 14.25 3.74994ZM9 14.9999C8.10998 14.9999 7.23995 14.736 6.49993 14.2415C5.75991 13.7471 5.18314 13.0443 4.84254 12.222C4.50195 11.3997 4.41283 10.4949 4.58647 9.62202C4.7601 8.74911 5.18868 7.94729 5.81802 7.31795C6.44736 6.68862 7.24918 6.26004 8.12209 6.0864C8.99501 5.91277 9.89981 6.00188 10.7221 6.34248C11.5443 6.68307 12.2471 7.25985 12.7416 7.99987C13.2361 8.73989 13.5 9.60991 13.5 10.4999C13.4988 11.693 13.0243 12.8369 12.1807 13.6806C11.337 14.5242 10.1931 14.9987 9 14.9999Z" fill="#3250FF"/>
</g>
<defs>
<clipPath id="clip0_657_5185">
<rect width="18" height="18" fill="white"/>
</clipPath>
</defs>
</svg>
