<svg width="16" height="16" viewBox="0 0 16 16" fill="none" xmlns="http://www.w3.org/2000/svg">
<path d="M13.9999 8.28246V7.33313C13.9999 5.74183 13.3678 4.21571 12.2426 3.09049C11.1173 1.96527 9.59123 1.33313 7.99993 1.33313C6.40863 1.33313 4.8825 1.96527 3.75729 3.09049C2.63207 4.21571 1.99993 5.74183 1.99993 7.33313V8.28246C1.3007 8.59035 0.72846 9.1291 0.379007 9.80851C0.0295548 10.4879 -0.0758997 11.2668 0.0802981 12.0146C0.236496 12.7625 0.644865 13.434 1.23704 13.9168C1.82921 14.3995 2.56925 14.6642 3.33326 14.6665C3.68688 14.6665 4.02602 14.526 4.27607 14.2759C4.52612 14.0259 4.66659 13.6868 4.66659 13.3331V9.33313C4.66659 8.97951 4.52612 8.64037 4.27607 8.39032C4.02602 8.14027 3.68688 7.9998 3.33326 7.9998V7.33313C3.33326 6.09545 3.82492 4.90847 4.70009 4.0333C5.57526 3.15813 6.76225 2.66646 7.99993 2.66646C9.2376 2.66646 10.4246 3.15813 11.2998 4.0333C12.1749 4.90847 12.6666 6.09545 12.6666 7.33313V7.9998C12.313 7.9998 11.9738 8.14027 11.7238 8.39032C11.4737 8.64037 11.3333 8.97951 11.3333 9.33313V13.3331C11.3333 13.6868 11.4737 14.0259 11.7238 14.2759C11.9738 14.526 12.313 14.6665 12.6666 14.6665C13.4306 14.6642 14.1706 14.3995 14.7628 13.9168C15.355 13.434 15.7634 12.7625 15.9196 12.0146C16.0758 11.2668 15.9703 10.4879 15.6208 9.80851C15.2714 9.1291 14.6992 8.59035 13.9999 8.28246Z" fill="#F86624"/>
</svg>
