<svg width="324" height="216" viewBox="0 0 324 216" fill="none" xmlns="http://www.w3.org/2000/svg">
<g filter="url(#filter0_d_399_68639)">
<rect x="30" y="26" width="264" height="156" rx="8" fill="white"/>
<rect x="30.5" y="26.5" width="263" height="155" rx="7.5" stroke="#E0E2E7"/>
<g clip-path="url(#clip0_399_68639)">
<path d="M63.2882 52.6667C63.8305 52.6672 64.3504 52.8829 64.7338 53.2663C65.1173 53.6498 65.333 54.1697 65.3335 54.712C65.3335 54.8888 65.4037 55.0584 65.5288 55.1834C65.6538 55.3084 65.8234 55.3787 66.0002 55.3787C66.177 55.3787 66.3465 55.3084 66.4716 55.1834C66.5966 55.0584 66.6668 54.8888 66.6668 54.712V54.6667C66.6668 54.654 66.6668 54.6427 66.6668 54.63C66.6446 53.7485 66.2789 52.9105 65.6478 52.2947C65.0167 51.6789 64.17 51.3339 63.2882 51.3333H62.6668V50.6667C62.6668 50.4899 62.5966 50.3203 62.4716 50.1953C62.3465 50.0702 62.177 50 62.0002 50C61.8234 50 61.6538 50.0702 61.5288 50.1953C61.4037 50.3203 61.3335 50.4899 61.3335 50.6667V51.3333H60.7122C59.9104 51.3342 59.135 51.6202 58.5247 52.1401C57.9144 52.6601 57.5088 53.3801 57.3806 54.1716C57.2524 54.9631 57.4098 55.7744 57.8247 56.4604C58.2396 57.1465 58.885 57.6627 59.6455 57.9167L61.3335 58.48V63.3333H60.7122C60.1699 63.3328 59.6499 63.1171 59.2665 62.7337C58.883 62.3502 58.6674 61.8303 58.6668 61.288C58.6668 61.1112 58.5966 60.9416 58.4716 60.8166C58.3465 60.6916 58.177 60.6213 58.0002 60.6213C57.8234 60.6213 57.6538 60.6916 57.5288 60.8166C57.4037 60.9416 57.3335 61.1112 57.3335 61.288V61.3333C57.3335 61.346 57.3335 61.3573 57.3335 61.37C57.3557 62.2515 57.7214 63.0895 58.3525 63.7053C58.9837 64.3211 59.8304 64.6661 60.7122 64.6667H61.3335V65.3333C61.3335 65.5101 61.4037 65.6797 61.5288 65.8047C61.6538 65.9298 61.8234 66 62.0002 66C62.177 66 62.3465 65.9298 62.4716 65.8047C62.5966 65.6797 62.6668 65.5101 62.6668 65.3333V64.6667H63.2882C64.09 64.6658 64.8653 64.3798 65.4756 63.8599C66.086 63.3399 66.4915 62.6199 66.6197 61.8284C66.748 61.0369 66.5906 60.2256 66.1756 59.5396C65.7607 58.8535 65.1153 58.3373 64.3548 58.0833L62.6668 57.52V52.6667H63.2882ZM63.9348 59.3473C64.3958 59.5008 64.7871 59.8132 65.0386 60.2288C65.2902 60.6444 65.3857 61.136 65.3079 61.6155C65.2301 62.0951 64.9841 62.5313 64.614 62.846C64.244 63.1608 63.774 63.3335 63.2882 63.3333H62.6668V58.9247L63.9348 59.3473ZM61.3335 57.0753L60.0668 56.6527C59.606 56.4993 59.2148 56.1869 58.9632 55.7715C58.7116 55.356 58.6161 54.8646 58.6937 54.3851C58.7713 53.9057 59.017 53.4695 59.3869 53.1546C59.7567 52.8398 60.2265 52.6668 60.7122 52.6667H61.3335V57.0753Z" fill="#EB3D4D"/>
</g>
<path d="M79.464 64V52.432H83.472C84.2987 52.432 85.0373 52.5733 85.688 52.856C86.344 53.1387 86.8587 53.5547 87.232 54.104C87.6107 54.6533 87.8 55.328 87.8 56.128C87.8 56.896 87.6267 57.552 87.28 58.096C86.9387 58.6347 86.4587 59.048 85.84 59.336C85.2267 59.6187 84.5147 59.76 83.704 59.76H81.208V64H79.464ZM81.2 58.36H83.656C84.392 58.36 84.992 58.1493 85.456 57.728C85.92 57.3013 86.152 56.736 86.152 56.032C86.152 55.3173 85.912 54.7707 85.432 54.392C84.952 54.008 84.3387 53.816 83.592 53.816H81.2V58.36ZM89.49 64V55.728H91.13V57.424C91.2687 57.0187 91.4607 56.68 91.706 56.408C91.9567 56.1307 92.2473 55.9227 92.578 55.784C92.9087 55.64 93.258 55.568 93.626 55.568C93.738 55.568 93.8447 55.576 93.946 55.592C94.0473 55.6027 94.1273 55.624 94.186 55.656V57.304C94.1167 57.272 94.026 57.2507 93.914 57.24C93.8073 57.2293 93.714 57.2213 93.634 57.216C93.2713 57.1893 92.9407 57.208 92.642 57.272C92.3433 57.336 92.0847 57.4427 91.866 57.592C91.6527 57.7413 91.4873 57.936 91.37 58.176C91.258 58.416 91.202 58.6987 91.202 59.024V64H89.49ZM99.0706 64.16C98.2973 64.16 97.62 63.9947 97.0386 63.664C96.4626 63.328 96.0146 62.8427 95.6946 62.208C95.38 61.5733 95.2226 60.8053 95.2226 59.904C95.2226 59.0347 95.372 58.2747 95.6706 57.624C95.9746 56.9733 96.4146 56.4693 96.9906 56.112C97.5666 55.7493 98.2626 55.568 99.0786 55.568C99.8573 55.568 100.532 55.7387 101.103 56.08C101.673 56.416 102.116 56.9093 102.431 57.56C102.745 58.2053 102.903 58.9867 102.903 59.904C102.903 60.7413 102.753 61.48 102.455 62.12C102.161 62.76 101.729 63.2613 101.159 63.624C100.593 63.9813 99.8973 64.16 99.0706 64.16ZM99.0786 62.84C99.548 62.84 99.94 62.7173 100.255 62.472C100.575 62.2213 100.815 61.872 100.975 61.424C101.135 60.9707 101.215 60.448 101.215 59.856C101.215 59.3067 101.143 58.808 100.999 58.36C100.86 57.9067 100.633 57.5467 100.319 57.28C100.004 57.0133 99.5906 56.88 99.0786 56.88C98.5986 56.88 98.1986 57.0027 97.8786 57.248C97.5586 57.488 97.316 57.832 97.1506 58.28C96.9906 58.7227 96.9106 59.248 96.9106 59.856C96.9106 60.3947 96.9826 60.8907 97.1266 61.344C97.2706 61.7973 97.5026 62.16 97.8226 62.432C98.1426 62.704 98.5613 62.84 99.0786 62.84ZM109.254 55.728V56.96H107.318V64H105.598V56.96H103.91V55.728H105.598V54.472C105.598 53.8107 105.774 53.3067 106.126 52.96C106.478 52.608 106.995 52.432 107.678 52.432H109.326L109.334 53.616H108.142C107.811 53.616 107.585 53.704 107.462 53.88C107.345 54.0507 107.286 54.3147 107.286 54.672V55.728H109.254ZM112.758 55.728V64H111.11V55.728H112.758ZM112.79 52.44V54.128H111.07V52.44H112.79ZM119.82 56.96H117.964L117.972 61.896C117.972 62.168 117.999 62.368 118.052 62.496C118.111 62.6187 118.207 62.6987 118.34 62.736C118.479 62.768 118.665 62.784 118.9 62.784H119.868V63.896C119.761 63.9387 119.601 63.976 119.388 64.008C119.18 64.04 118.911 64.056 118.58 64.056C117.967 64.056 117.489 63.9733 117.148 63.808C116.812 63.6427 116.577 63.4053 116.444 63.096C116.316 62.7813 116.252 62.4027 116.252 61.96V56.96H114.908V55.728H116.3L116.724 53.296H117.964V55.72H119.82V56.96Z" fill="#777980"/>
<path d="M61.104 109.32C58.48 109.32 56.3307 108.776 54.656 107.688C52.9813 106.6 52.0053 104.957 51.728 102.76L55.792 102.616C56.08 103.789 56.688 104.675 57.616 105.272C58.5547 105.859 59.712 106.152 61.088 106.152C61.9093 106.152 62.6613 106.013 63.344 105.736C64.0267 105.459 64.5707 105.075 64.976 104.584C65.3813 104.093 65.584 103.528 65.584 102.888C65.584 101.96 65.296 101.245 64.72 100.744C64.1547 100.232 63.264 99.832 62.048 99.544L58.16 98.616C56.432 98.2213 55.0507 97.528 54.016 96.536C52.9813 95.5333 52.4533 94.1893 52.432 92.504C52.4213 91.1067 52.7893 89.8907 53.536 88.856C54.2933 87.8107 55.3333 87.0053 56.656 86.44C57.9787 85.864 59.4773 85.576 61.152 85.576C62.8267 85.576 64.272 85.8853 65.488 86.504C66.704 87.112 67.6427 87.928 68.304 88.952C68.9653 89.976 69.3013 91.1013 69.312 92.328L65.36 92.456C65.1787 91.272 64.768 90.36 64.128 89.72C63.488 89.0693 62.5067 88.744 61.184 88.744C60.544 88.744 59.9467 88.8187 59.392 88.968C58.8373 89.1173 58.352 89.336 57.936 89.624C57.52 89.912 57.1947 90.264 56.96 90.68C56.7253 91.0853 56.608 91.5493 56.608 92.072C56.608 92.8187 56.864 93.4107 57.376 93.848C57.8987 94.2747 58.848 94.6853 60.224 95.08L64 96.072C66.0373 96.5947 67.4987 97.448 68.384 98.632C69.28 99.816 69.728 101.224 69.728 102.856C69.728 104.147 69.3707 105.277 68.656 106.248C67.9413 107.208 66.9333 107.96 65.632 108.504C64.3413 109.048 62.832 109.32 61.104 109.32ZM59.44 82.488H62.896V86.632H59.44V82.488ZM59.312 108.04H62.752V112.184H59.312V108.04ZM75.4208 85.864H89.8048L89.6608 89.112H78.5888L78.0608 95.544C78.8821 94.968 79.7088 94.552 80.5408 94.296C81.3728 94.04 82.2901 93.912 83.2928 93.912C84.7648 93.912 86.1034 94.2 87.3088 94.776C88.5141 95.352 89.4741 96.2 90.1888 97.32C90.9034 98.44 91.2608 99.8107 91.2608 101.432C91.2608 103.053 90.8981 104.456 90.1728 105.64C89.4581 106.824 88.4448 107.741 87.1328 108.392C85.8314 109.032 84.2901 109.352 82.5087 109.352C81.0368 109.352 79.6661 109.112 78.3967 108.632C77.1381 108.141 76.0501 107.469 75.1328 106.616C74.2261 105.763 73.5487 104.787 73.1007 103.688L76.2527 102.024C76.6474 102.813 77.1167 103.523 77.6607 104.152C78.2154 104.781 78.8608 105.277 79.5968 105.64C80.3434 105.992 81.1968 106.168 82.1568 106.168C83.6608 106.168 84.8661 105.752 85.7728 104.92C86.6901 104.077 87.1488 102.957 87.1488 101.56C87.1488 100.696 86.9354 99.928 86.5088 99.256C86.0928 98.584 85.5221 98.0613 84.7968 97.688C84.0821 97.304 83.2661 97.112 82.3488 97.112C81.8048 97.112 81.2928 97.16 80.8127 97.256C80.3434 97.352 79.8688 97.5333 79.3888 97.8C78.9088 98.056 78.3914 98.4453 77.8368 98.968C77.7301 99.0213 77.6501 99.048 77.5968 99.048C77.5541 99.0373 77.4741 99.0053 77.3568 98.952L74.3647 97.736L75.4208 85.864ZM98.5945 109V91.176H94.3065V88.856C95.6612 88.856 96.7332 88.744 97.5225 88.52C98.3225 88.2853 98.9038 87.944 99.2665 87.496C99.6398 87.048 99.8532 86.504 99.9065 85.864H102.562V109H98.5945ZM107.905 113.272L109.729 109.096L108.209 108.984V104.904H112.465V108.472L109.473 113.272H107.905ZM117.465 109V106.92V105.848C117.465 104.664 117.684 103.645 118.121 102.792C118.559 101.928 119.14 101.176 119.865 100.536C120.591 99.896 121.385 99.3307 122.249 98.84C123.124 98.3387 123.988 97.8693 124.842 97.432C125.705 96.984 126.5 96.5253 127.226 96.056C127.951 95.576 128.532 95.0427 128.969 94.456C129.418 93.8693 129.642 93.1707 129.642 92.36C129.642 91.3253 129.274 90.4827 128.538 89.832C127.812 89.1707 126.825 88.84 125.577 88.84C124.255 88.84 123.161 89.2187 122.297 89.976C121.444 90.7333 120.937 91.8 120.777 93.176H117.001C117.023 91.768 117.359 90.488 118.009 89.336C118.66 88.184 119.625 87.2667 120.905 86.584C122.185 85.8907 123.78 85.544 125.689 85.544C127.343 85.544 128.767 85.832 129.962 86.408C131.167 86.9733 132.095 87.768 132.746 88.792C133.407 89.8053 133.738 90.9893 133.738 92.344C133.738 93.528 133.519 94.5413 133.082 95.384C132.655 96.2267 132.084 96.9573 131.37 97.576C130.666 98.184 129.887 98.7227 129.033 99.192C128.191 99.6613 127.343 100.104 126.49 100.52C125.647 100.925 124.868 101.352 124.153 101.8C123.449 102.237 122.879 102.739 122.441 103.304C122.015 103.869 121.801 104.547 121.801 105.336V105.672H133.785V109H117.465ZM139.28 85.864H153.664L153.52 89.112H142.448L141.92 95.544C142.741 94.968 143.568 94.552 144.4 94.296C145.232 94.04 146.149 93.912 147.152 93.912C148.624 93.912 149.962 94.2 151.168 94.776C152.373 95.352 153.333 96.2 154.048 97.32C154.762 98.44 155.12 99.8107 155.12 101.432C155.12 103.053 154.757 104.456 154.032 105.64C153.317 106.824 152.304 107.741 150.992 108.392C149.69 109.032 148.149 109.352 146.368 109.352C144.896 109.352 143.525 109.112 142.256 108.632C140.997 108.141 139.909 107.469 138.992 106.616C138.085 105.763 137.408 104.787 136.96 103.688L140.112 102.024C140.506 102.813 140.976 103.523 141.52 104.152C142.074 104.781 142.72 105.277 143.456 105.64C144.202 105.992 145.056 106.168 146.016 106.168C147.52 106.168 148.725 105.752 149.632 104.92C150.549 104.077 151.008 102.957 151.008 101.56C151.008 100.696 150.794 99.928 150.368 99.256C149.952 98.584 149.381 98.0613 148.656 97.688C147.941 97.304 147.125 97.112 146.208 97.112C145.664 97.112 145.152 97.16 144.672 97.256C144.202 97.352 143.728 97.5333 143.248 97.8C142.768 98.056 142.25 98.4453 141.696 98.968C141.589 99.0213 141.509 99.048 141.456 99.048C141.413 99.0373 141.333 99.0053 141.216 98.952L138.224 97.736L139.28 85.864ZM166.837 85.544C169.483 85.544 171.573 86.5627 173.109 88.6C174.656 90.6267 175.429 93.5867 175.429 97.48C175.429 101.352 174.661 104.301 173.125 106.328C171.6 108.344 169.499 109.352 166.821 109.352C164.144 109.352 162.037 108.344 160.501 106.328C158.976 104.312 158.213 101.373 158.213 97.512C158.213 94.9093 158.565 92.7227 159.269 90.952C159.973 89.1707 160.971 87.8267 162.261 86.92C163.552 86.0027 165.077 85.544 166.837 85.544ZM166.837 106.104C168.341 106.104 169.461 105.437 170.197 104.104C170.933 102.771 171.301 100.568 171.301 97.496C171.301 94.36 170.928 92.1093 170.181 90.744C169.435 89.3787 168.315 88.696 166.821 88.696C165.328 88.696 164.197 89.384 163.429 90.76C162.672 92.136 162.293 94.3813 162.293 97.496C162.293 100.557 162.672 102.76 163.429 104.104C164.197 105.437 165.333 106.104 166.837 106.104Z" fill="#1D1F2C"/>
<path d="M56.366 139.996V141.274H50.696V139.996H56.366ZM54.176 143.464H52.898V137.794H54.176V143.464ZM59.1904 145V138.502H57.6424V137.512C58.1384 137.512 58.5384 137.466 58.8424 137.374C59.1504 137.278 59.3804 137.142 59.5324 136.966C59.6844 136.786 59.7744 136.572 59.8024 136.324H60.9664V145H59.1904ZM66.1952 136.204C67.2272 136.204 68.0412 136.59 68.6372 137.362C69.2332 138.13 69.5312 139.236 69.5312 140.68C69.5312 142.116 69.2372 143.218 68.6492 143.986C68.0612 144.75 67.2432 145.132 66.1952 145.132C65.1432 145.132 64.3212 144.75 63.7292 143.986C63.1412 143.222 62.8472 142.122 62.8472 140.686C62.8472 139.726 62.9832 138.912 63.2552 138.244C63.5272 137.576 63.9132 137.07 64.4132 136.726C64.9132 136.378 65.5072 136.204 66.1952 136.204ZM66.1952 143.698C66.7112 143.698 67.0892 143.468 67.3292 143.008C67.5692 142.544 67.6892 141.77 67.6892 140.686C67.6892 139.578 67.5672 138.784 67.3232 138.304C67.0792 137.824 66.7012 137.584 66.1892 137.584C65.6772 137.584 65.2952 137.826 65.0432 138.31C64.7952 138.794 64.6712 139.586 64.6712 140.686C64.6712 141.766 64.7952 142.538 65.0432 143.002C65.2912 143.466 65.6752 143.698 66.1952 143.698ZM72.8676 136.192C73.2796 136.192 73.6496 136.302 73.9776 136.522C74.3056 136.742 74.5656 137.04 74.7576 137.416C74.9496 137.792 75.0456 138.212 75.0456 138.676C75.0456 139.136 74.9516 139.55 74.7636 139.918C74.5756 140.286 74.3156 140.578 73.9836 140.794C73.6556 141.006 73.2836 141.112 72.8676 141.112C72.4516 141.112 72.0776 141.006 71.7456 140.794C71.4136 140.578 71.1516 140.286 70.9596 139.918C70.7676 139.55 70.6716 139.136 70.6716 138.676C70.6716 138.212 70.7676 137.792 70.9596 137.416C71.1556 137.04 71.4196 136.742 71.7516 136.522C72.0836 136.302 72.4556 136.192 72.8676 136.192ZM72.8556 140.224C73.1716 140.224 73.3996 140.088 73.5396 139.816C73.6836 139.54 73.7556 139.16 73.7556 138.676C73.7556 138.176 73.6816 137.784 73.5336 137.5C73.3856 137.216 73.1596 137.074 72.8556 137.074C72.6556 137.074 72.4896 137.14 72.3576 137.272C72.2256 137.4 72.1256 137.584 72.0576 137.824C71.9936 138.064 71.9616 138.348 71.9616 138.676C71.9616 139.156 72.0336 139.534 72.1776 139.81C72.3216 140.086 72.5476 140.224 72.8556 140.224ZM78.5616 140.188C78.9736 140.188 79.3436 140.3 79.6716 140.524C80.0036 140.744 80.2656 141.042 80.4576 141.418C80.6496 141.794 80.7456 142.212 80.7456 142.672C80.7456 143.132 80.6516 143.548 80.4636 143.92C80.2756 144.288 80.0156 144.58 79.6836 144.796C79.3556 145.012 78.9816 145.12 78.5616 145.12C78.1416 145.12 77.7656 145.012 77.4336 144.796C77.1016 144.58 76.8396 144.288 76.6476 143.92C76.4556 143.548 76.3596 143.132 76.3596 142.672C76.3596 142.212 76.4556 141.794 76.6476 141.418C76.8436 141.042 77.1076 140.744 77.4396 140.524C77.7756 140.3 78.1496 140.188 78.5616 140.188ZM78.5496 144.214C78.7536 144.214 78.9216 144.152 79.0536 144.028C79.1856 143.904 79.2836 143.728 79.3476 143.5C79.4156 143.268 79.4496 142.996 79.4496 142.684C79.4496 142.352 79.4156 142.068 79.3476 141.832C79.2796 141.592 79.1796 141.408 79.0476 141.28C78.9156 141.148 78.7496 141.082 78.5496 141.082C78.3496 141.082 78.1836 141.148 78.0516 141.28C77.9236 141.408 77.8256 141.592 77.7576 141.832C77.6936 142.072 77.6616 142.356 77.6616 142.684C77.6616 142.996 77.6936 143.268 77.7576 143.5C77.8216 143.728 77.9196 143.904 78.0516 144.028C78.1836 144.152 78.3496 144.214 78.5496 144.214ZM79.0596 136.228L73.2276 145.048L72.1956 145.03L78.0456 136.228H79.0596Z" fill="#1A9882"/>
<path d="M86.2887 146.932H85.4247L85.4187 135.088H86.2887V146.932ZM96.2266 140.206V141.064L91.0486 141.076V140.212L96.2266 140.206ZM94.0786 143.224H93.2206L93.2086 138.046H94.0726L94.0786 143.224ZM98.4309 136.324H103.609L103.579 137.284H99.3789L99.1569 140.086C99.4449 139.818 99.7589 139.628 100.099 139.516C100.443 139.4 100.815 139.342 101.215 139.342C101.739 139.342 102.221 139.45 102.661 139.666C103.105 139.878 103.461 140.194 103.729 140.614C103.997 141.03 104.131 141.546 104.131 142.162C104.131 142.762 104.001 143.284 103.741 143.728C103.481 144.172 103.115 144.518 102.643 144.766C102.171 145.01 101.617 145.132 100.981 145.132C100.445 145.132 99.9489 145.038 99.4929 144.85C99.0369 144.662 98.6449 144.4 98.3169 144.064C97.9929 143.728 97.7549 143.342 97.6029 142.906L98.5629 142.504C98.7069 142.832 98.8869 143.124 99.1029 143.38C99.3229 143.636 99.5829 143.836 99.8829 143.98C100.183 144.124 100.523 144.196 100.903 144.196C101.519 144.196 102.013 144.018 102.385 143.662C102.761 143.302 102.949 142.814 102.949 142.198C102.949 141.814 102.861 141.48 102.685 141.196C102.509 140.908 102.271 140.684 101.971 140.524C101.675 140.364 101.347 140.284 100.987 140.284C100.751 140.284 100.531 140.306 100.327 140.35C100.123 140.39 99.9209 140.47 99.7209 140.59C99.5209 140.71 99.3109 140.892 99.0909 141.136C99.0669 141.148 99.0489 141.154 99.0369 141.154C99.0249 141.15 99.0049 141.142 98.9769 141.13L98.0409 140.836L98.4309 136.324ZM107.006 145V138.094H105.332V137.368C105.852 137.368 106.256 137.33 106.544 137.254C106.832 137.178 107.036 137.062 107.156 136.906C107.28 136.75 107.348 136.556 107.36 136.324H108.152V145H107.006ZM110.465 145V144.322V143.968C110.465 143.524 110.547 143.14 110.711 142.816C110.879 142.492 111.099 142.21 111.371 141.97C111.647 141.726 111.947 141.508 112.271 141.316C112.599 141.124 112.925 140.94 113.249 140.764C113.577 140.584 113.877 140.398 114.149 140.206C114.421 140.01 114.639 139.79 114.803 139.546C114.971 139.298 115.055 139.006 115.055 138.67C115.055 138.23 114.899 137.872 114.587 137.596C114.279 137.32 113.861 137.182 113.333 137.182C112.765 137.182 112.309 137.342 111.965 137.662C111.621 137.982 111.427 138.408 111.383 138.94H110.279C110.291 138.44 110.415 137.984 110.651 137.572C110.887 137.156 111.233 136.824 111.689 136.576C112.145 136.328 112.707 136.204 113.375 136.204C113.955 136.204 114.459 136.308 114.887 136.516C115.315 136.72 115.645 137.008 115.877 137.38C116.113 137.748 116.231 138.178 116.231 138.67C116.231 139.118 116.149 139.502 115.985 139.822C115.821 140.142 115.603 140.42 115.331 140.656C115.063 140.888 114.769 141.096 114.449 141.28C114.129 141.464 113.807 141.642 113.483 141.814C113.159 141.982 112.863 142.16 112.595 142.348C112.327 142.532 112.111 142.744 111.947 142.984C111.783 143.224 111.701 143.51 111.701 143.842V144.016H116.279V145H110.465ZM123.837 139.606H122.439V143.464C122.439 143.684 122.461 143.846 122.505 143.95C122.553 144.05 122.631 144.114 122.739 144.142C122.851 144.17 123.003 144.184 123.195 144.184H123.873V144.928C123.797 144.956 123.681 144.98 123.525 145C123.373 145.02 123.183 145.03 122.955 145.03C122.527 145.03 122.195 144.972 121.959 144.856C121.723 144.74 121.557 144.568 121.461 144.34C121.369 144.112 121.323 143.832 121.323 143.5V139.606H120.315V138.796H121.353L121.623 136.99H122.439V138.79H123.837V139.606ZM127.793 145.12C127.221 145.12 126.721 144.998 126.293 144.754C125.865 144.506 125.533 144.144 125.297 143.668C125.061 143.192 124.943 142.61 124.943 141.922C124.943 141.274 125.053 140.706 125.273 140.218C125.493 139.73 125.815 139.352 126.239 139.084C126.667 138.812 127.185 138.676 127.793 138.676C128.365 138.676 128.861 138.802 129.281 139.054C129.705 139.302 130.033 139.668 130.265 140.152C130.497 140.636 130.613 141.226 130.613 141.922C130.613 142.554 130.505 143.11 130.289 143.59C130.077 144.07 129.761 144.446 129.341 144.718C128.925 144.986 128.409 145.12 127.793 145.12ZM127.793 144.244C128.165 144.244 128.479 144.15 128.735 143.962C128.991 143.774 129.185 143.504 129.317 143.152C129.449 142.8 129.515 142.382 129.515 141.898C129.515 141.454 129.457 141.056 129.341 140.704C129.225 140.348 129.039 140.066 128.783 139.858C128.531 139.65 128.201 139.546 127.793 139.546C127.417 139.546 127.099 139.64 126.839 139.828C126.579 140.012 126.381 140.28 126.245 140.632C126.113 140.984 126.047 141.406 126.047 141.898C126.047 142.334 126.107 142.73 126.227 143.086C126.347 143.442 126.535 143.724 126.791 143.932C127.047 144.14 127.381 144.244 127.793 144.244ZM134.363 145.12C133.559 145.12 132.921 144.844 132.449 144.292C131.977 143.74 131.741 142.934 131.741 141.874C131.741 141.23 131.835 140.668 132.023 140.188C132.215 139.708 132.499 139.336 132.875 139.072C133.251 138.808 133.719 138.676 134.279 138.676C134.575 138.676 134.837 138.714 135.065 138.79C135.297 138.866 135.497 138.962 135.665 139.078C135.833 139.194 135.969 139.314 136.073 139.438C136.181 139.562 136.261 139.676 136.313 139.78V136.084H137.429V145H136.583L136.463 143.728C136.423 143.848 136.359 143.988 136.271 144.148C136.183 144.304 136.059 144.458 135.899 144.61C135.739 144.758 135.533 144.88 135.281 144.976C135.033 145.072 134.727 145.12 134.363 145.12ZM134.561 144.268C135.189 144.268 135.637 144.078 135.905 143.698C136.177 143.314 136.313 142.688 136.313 141.82C136.309 141.336 136.247 140.924 136.127 140.584C136.011 140.244 135.827 139.986 135.575 139.81C135.327 139.63 134.997 139.54 134.585 139.54C134.073 139.54 133.657 139.722 133.337 140.086C133.017 140.45 132.857 141.028 132.857 141.82C132.857 142.596 133.001 143.198 133.289 143.626C133.581 144.054 134.005 144.268 134.561 144.268ZM141.038 145.12C140.638 145.12 140.284 145.05 139.976 144.91C139.668 144.766 139.426 144.56 139.25 144.292C139.078 144.024 138.992 143.7 138.992 143.32C138.992 142.632 139.232 142.12 139.712 141.784C140.192 141.448 140.962 141.268 142.022 141.244L143.132 141.214V140.728C143.132 140.348 143.018 140.048 142.79 139.828C142.562 139.604 142.208 139.492 141.728 139.492C141.372 139.496 141.058 139.58 140.786 139.744C140.518 139.908 140.344 140.176 140.264 140.548H139.286C139.31 140.144 139.424 139.804 139.628 139.528C139.832 139.248 140.116 139.036 140.48 138.892C140.848 138.748 141.282 138.676 141.782 138.676C142.322 138.676 142.77 138.752 143.126 138.904C143.486 139.056 143.754 139.28 143.93 139.576C144.11 139.872 144.2 140.236 144.2 140.668V145H143.252L143.174 143.836C142.934 144.32 142.628 144.656 142.256 144.844C141.888 145.028 141.482 145.12 141.038 145.12ZM141.374 144.322C141.582 144.322 141.788 144.284 141.992 144.208C142.2 144.132 142.39 144.03 142.562 143.902C142.734 143.77 142.87 143.624 142.97 143.464C143.074 143.3 143.128 143.132 143.132 142.96V141.898L142.208 141.916C141.736 141.924 141.34 141.972 141.02 142.06C140.704 142.148 140.466 142.286 140.306 142.474C140.15 142.662 140.072 142.908 140.072 143.212C140.072 143.56 140.192 143.832 140.432 144.028C140.676 144.224 140.99 144.322 141.374 144.322ZM146.568 146.98C146.204 146.98 145.954 146.954 145.818 146.902C145.682 146.85 145.614 146.824 145.614 146.824V146.104L146.244 146.116C146.476 146.124 146.668 146.108 146.82 146.068C146.972 146.028 147.094 145.974 147.186 145.906C147.278 145.838 147.348 145.762 147.396 145.678C147.448 145.594 147.49 145.514 147.522 145.438L147.738 144.85L145.314 138.796H146.436L148.266 143.584L150.084 138.796H151.17L148.554 145.468C148.394 145.86 148.214 146.166 148.014 146.386C147.818 146.606 147.598 146.76 147.354 146.848C147.114 146.936 146.852 146.98 146.568 146.98Z" fill="#858D9D"/>
<path d="M250.02 136.204C250.616 136.204 251.148 136.298 251.616 136.486C252.088 136.674 252.46 136.95 252.732 137.314C253.004 137.674 253.14 138.118 253.14 138.646C253.14 139.09 253.018 139.468 252.774 139.78C252.53 140.092 252.23 140.332 251.874 140.5C252.138 140.556 252.396 140.688 252.648 140.896C252.904 141.1 253.114 141.352 253.278 141.652C253.442 141.948 253.524 142.262 253.524 142.594C253.524 143.11 253.378 143.558 253.086 143.938C252.798 144.318 252.39 144.612 251.862 144.82C251.338 145.024 250.724 145.126 250.02 145.126C249.324 145.126 248.714 145.024 248.19 144.82C247.666 144.612 247.258 144.318 246.966 143.938C246.674 143.558 246.528 143.11 246.528 142.594C246.528 142.262 246.61 141.948 246.774 141.652C246.938 141.352 247.146 141.1 247.398 140.896C247.65 140.688 247.91 140.556 248.178 140.5C247.822 140.332 247.52 140.092 247.272 139.78C247.024 139.468 246.9 139.09 246.9 138.646C246.9 138.118 247.036 137.674 247.308 137.314C247.584 136.95 247.958 136.674 248.43 136.486C248.902 136.298 249.432 136.204 250.02 136.204ZM250.02 139.822C250.42 139.822 250.748 139.716 251.004 139.504C251.264 139.288 251.394 138.99 251.394 138.61C251.394 138.234 251.264 137.936 251.004 137.716C250.744 137.496 250.416 137.386 250.02 137.386C249.628 137.386 249.302 137.496 249.042 137.716C248.782 137.936 248.652 138.234 248.652 138.61C248.652 138.99 248.782 139.288 249.042 139.504C249.302 139.716 249.628 139.822 250.02 139.822ZM250.02 143.806C250.532 143.806 250.932 143.692 251.22 143.464C251.512 143.232 251.658 142.926 251.658 142.546C251.658 142.29 251.592 142.066 251.46 141.874C251.328 141.678 251.14 141.524 250.896 141.412C250.652 141.3 250.36 141.244 250.02 141.244C249.688 141.244 249.4 141.3 249.156 141.412C248.912 141.524 248.724 141.678 248.592 141.874C248.46 142.066 248.394 142.29 248.394 142.546C248.394 142.926 248.54 143.232 248.832 143.464C249.124 143.692 249.52 143.806 250.02 143.806ZM257.952 136.204C258.984 136.204 259.798 136.59 260.394 137.362C260.99 138.13 261.288 139.236 261.288 140.68C261.288 142.116 260.994 143.218 260.406 143.986C259.818 144.75 259 145.132 257.952 145.132C256.9 145.132 256.078 144.75 255.486 143.986C254.898 143.222 254.604 142.122 254.604 140.686C254.604 139.726 254.74 138.912 255.012 138.244C255.284 137.576 255.67 137.07 256.17 136.726C256.67 136.378 257.264 136.204 257.952 136.204ZM257.952 143.698C258.468 143.698 258.846 143.468 259.086 143.008C259.326 142.544 259.446 141.77 259.446 140.686C259.446 139.578 259.324 138.784 259.08 138.304C258.836 137.824 258.458 137.584 257.946 137.584C257.434 137.584 257.052 137.826 256.8 138.31C256.552 138.794 256.428 139.586 256.428 140.686C256.428 141.766 256.552 142.538 256.8 143.002C257.048 143.466 257.432 143.698 257.952 143.698ZM264.624 136.192C265.036 136.192 265.406 136.302 265.734 136.522C266.062 136.742 266.322 137.04 266.514 137.416C266.706 137.792 266.802 138.212 266.802 138.676C266.802 139.136 266.708 139.55 266.52 139.918C266.332 140.286 266.072 140.578 265.74 140.794C265.412 141.006 265.04 141.112 264.624 141.112C264.208 141.112 263.834 141.006 263.502 140.794C263.17 140.578 262.908 140.286 262.716 139.918C262.524 139.55 262.428 139.136 262.428 138.676C262.428 138.212 262.524 137.792 262.716 137.416C262.912 137.04 263.176 136.742 263.508 136.522C263.84 136.302 264.212 136.192 264.624 136.192ZM264.612 140.224C264.928 140.224 265.156 140.088 265.296 139.816C265.44 139.54 265.512 139.16 265.512 138.676C265.512 138.176 265.438 137.784 265.29 137.5C265.142 137.216 264.916 137.074 264.612 137.074C264.412 137.074 264.246 137.14 264.114 137.272C263.982 137.4 263.882 137.584 263.814 137.824C263.75 138.064 263.718 138.348 263.718 138.676C263.718 139.156 263.79 139.534 263.934 139.81C264.078 140.086 264.304 140.224 264.612 140.224ZM270.318 140.188C270.73 140.188 271.1 140.3 271.428 140.524C271.76 140.744 272.022 141.042 272.214 141.418C272.406 141.794 272.502 142.212 272.502 142.672C272.502 143.132 272.408 143.548 272.22 143.92C272.032 144.288 271.772 144.58 271.44 144.796C271.112 145.012 270.738 145.12 270.318 145.12C269.898 145.12 269.522 145.012 269.19 144.796C268.858 144.58 268.596 144.288 268.404 143.92C268.212 143.548 268.116 143.132 268.116 142.672C268.116 142.212 268.212 141.794 268.404 141.418C268.6 141.042 268.864 140.744 269.196 140.524C269.532 140.3 269.906 140.188 270.318 140.188ZM270.306 144.214C270.51 144.214 270.678 144.152 270.81 144.028C270.942 143.904 271.04 143.728 271.104 143.5C271.172 143.268 271.206 142.996 271.206 142.684C271.206 142.352 271.172 142.068 271.104 141.832C271.036 141.592 270.936 141.408 270.804 141.28C270.672 141.148 270.506 141.082 270.306 141.082C270.106 141.082 269.94 141.148 269.808 141.28C269.68 141.408 269.582 141.592 269.514 141.832C269.45 142.072 269.418 142.356 269.418 142.684C269.418 142.996 269.45 143.268 269.514 143.5C269.578 143.728 269.676 143.904 269.808 144.028C269.94 144.152 270.106 144.214 270.306 144.214ZM270.816 136.228L264.984 145.048L263.952 145.03L269.802 136.228H270.816Z" fill="#EB3D4D"/>
<rect x="50" y="154" width="224" height="8" rx="4" fill="#F0F1F3"/>
<rect x="50" y="154" width="184" height="8" rx="4" fill="url(#paint0_linear_399_68639)"/>
</g>
<defs>
<filter id="filter0_d_399_68639" x="0" y="0" width="324" height="216" filterUnits="userSpaceOnUse" color-interpolation-filters="sRGB">
<feFlood flood-opacity="0" result="BackgroundImageFix"/>
<feColorMatrix in="SourceAlpha" type="matrix" values="0 0 0 0 0 0 0 0 0 0 0 0 0 0 0 0 0 0 127 0" result="hardAlpha"/>
<feOffset dy="4"/>
<feGaussianBlur stdDeviation="15"/>
<feComposite in2="hardAlpha" operator="out"/>
<feColorMatrix type="matrix" values="0 0 0 0 0 0 0 0 0 0 0 0 0 0 0 0 0 0 0.1 0"/>
<feBlend mode="normal" in2="BackgroundImageFix" result="effect1_dropShadow_399_68639"/>
<feBlend mode="normal" in="SourceGraphic" in2="effect1_dropShadow_399_68639" result="shape"/>
</filter>
<linearGradient id="paint0_linear_399_68639" x1="50" y1="158" x2="234" y2="158" gradientUnits="userSpaceOnUse">
<stop stop-color="#EB3D4D"/>
<stop offset="1" stop-color="#FBA37C"/>
</linearGradient>
<clipPath id="clip0_399_68639">
<rect width="16" height="16" fill="white" transform="translate(54 50)"/>
</clipPath>
</defs>
</svg>
