<svg width="12" height="16" viewBox="0 0 12 16" fill="none" xmlns="http://www.w3.org/2000/svg">
<path d="M6.66675 1.99999V0.666661C6.66675 0.48985 6.59651 0.320281 6.47149 0.195256C6.34646 0.0702322 6.17689 -5.72205e-06 6.00008 -5.72205e-06C5.82327 -5.72205e-06 5.6537 0.0702322 5.52868 0.195256C5.40365 0.320281 5.33342 0.48985 5.33342 0.666661V1.99999C4.09617 2.00141 2.91001 2.49352 2.03514 3.36839C1.16028 4.24325 0.66816 5.42942 0.666748 6.66666V10.6667C0.666748 12.0811 1.22865 13.4377 2.22885 14.4379C3.22904 15.4381 4.58559 16 6.00008 16C7.41457 16 8.77112 15.4381 9.77132 14.4379C10.7715 13.4377 11.3334 12.0811 11.3334 10.6667V6.66666C11.332 5.42942 10.8399 4.24325 9.96502 3.36839C9.09016 2.49352 7.90399 2.00141 6.66675 1.99999ZM6.66675 6.66666C6.66675 6.84347 6.59651 7.01304 6.47149 7.13807C6.34646 7.26309 6.17689 7.33333 6.00008 7.33333C5.82327 7.33333 5.6537 7.26309 5.52868 7.13807C5.40365 7.01304 5.33342 6.84347 5.33342 6.66666V5.33333C5.33342 5.15652 5.40365 4.98695 5.52868 4.86192C5.6537 4.7369 5.82327 4.66666 6.00008 4.66666C6.17689 4.66666 6.34646 4.7369 6.47149 4.86192C6.59651 4.98695 6.66675 5.15652 6.66675 5.33333V6.66666Z" fill="#883DCF"/>
</svg>
