<svg width="16" height="13" viewBox="0 0 16 13" fill="none" xmlns="http://www.w3.org/2000/svg">
<path d="M12.6667 2.9998H8.66667V0.999797C8.66667 0.822986 8.59643 0.653416 8.47141 0.528392C8.34638 0.403368 8.17681 0.33313 8 0.33313C7.82319 0.33313 7.65362 0.403368 7.5286 0.528392C7.40357 0.653416 7.33333 0.822986 7.33333 0.999797V2.9998H3.33333C2.4496 3.00086 1.60237 3.35238 0.97748 3.97728C0.352588 4.60217 0.00105857 5.4494 0 6.33313L0 8.9998C0.00105857 9.88353 0.352588 10.7308 0.97748 11.3557C1.60237 11.9805 2.4496 12.3321 3.33333 12.3331H12.6667C13.5504 12.3321 14.3976 11.9805 15.0225 11.3557C15.6474 10.7308 15.9989 9.88353 16 8.9998V6.33313C15.9989 5.4494 15.6474 4.60217 15.0225 3.97728C14.3976 3.35238 13.5504 3.00086 12.6667 2.9998ZM6.66667 5.66646H7.33333C7.51014 5.66646 7.67971 5.7367 7.80474 5.86173C7.92976 5.98675 8 6.15632 8 6.33313C8 6.50994 7.92976 6.67951 7.80474 6.80453C7.67971 6.92956 7.51014 6.9998 7.33333 6.9998H6.66667C6.48986 6.9998 6.32029 6.92956 6.19526 6.80453C6.07024 6.67951 6 6.50994 6 6.33313C6 6.15632 6.07024 5.98675 6.19526 5.86173C6.32029 5.7367 6.48986 5.66646 6.66667 5.66646ZM3.33333 9.66646C3.20148 9.66646 3.07259 9.62736 2.96295 9.55411C2.85332 9.48086 2.76787 9.37674 2.71741 9.25492C2.66696 9.1331 2.65375 8.99906 2.67948 8.86974C2.7052 8.74042 2.76869 8.62163 2.86193 8.52839C2.95516 8.43516 3.07395 8.37166 3.20327 8.34594C3.33259 8.32022 3.46664 8.33342 3.58846 8.38388C3.71027 8.43434 3.81439 8.51978 3.88765 8.62942C3.9609 8.73905 4 8.86794 4 8.9998C4 9.17661 3.92976 9.34618 3.80474 9.4712C3.67971 9.59623 3.51014 9.66646 3.33333 9.66646ZM4 6.9998H3.33333C3.15652 6.9998 2.98695 6.92956 2.86193 6.80453C2.7369 6.67951 2.66667 6.50994 2.66667 6.33313C2.66667 6.15632 2.7369 5.98675 2.86193 5.86173C2.98695 5.7367 3.15652 5.66646 3.33333 5.66646H4C4.17681 5.66646 4.34638 5.7367 4.4714 5.86173C4.59643 5.98675 4.66667 6.15632 4.66667 6.33313C4.66667 6.50994 4.59643 6.67951 4.4714 6.80453C4.34638 6.92956 4.17681 6.9998 4 6.9998ZM10 9.66646H6C5.82319 9.66646 5.65362 9.59623 5.5286 9.4712C5.40357 9.34618 5.33333 9.17661 5.33333 8.9998C5.33333 8.82299 5.40357 8.65342 5.5286 8.52839C5.65362 8.40337 5.82319 8.33313 6 8.33313H10C10.1768 8.33313 10.3464 8.40337 10.4714 8.52839C10.5964 8.65342 10.6667 8.82299 10.6667 8.9998C10.6667 9.17661 10.5964 9.34618 10.4714 9.4712C10.3464 9.59623 10.1768 9.66646 10 9.66646ZM12.6667 9.66646C12.5348 9.66646 12.4059 9.62736 12.2963 9.55411C12.1867 9.48086 12.1012 9.37674 12.0507 9.25492C12.0003 9.1331 11.9871 8.99906 12.0128 8.86974C12.0385 8.74042 12.102 8.62163 12.1953 8.52839C12.2885 8.43516 12.4073 8.37166 12.5366 8.34594C12.6659 8.32022 12.8 8.33342 12.9218 8.38388C13.0436 8.43434 13.1477 8.51978 13.221 8.62942C13.2942 8.73905 13.3333 8.86794 13.3333 8.9998C13.3333 9.17661 13.2631 9.34618 13.1381 9.4712C13.013 9.59623 12.8435 9.66646 12.6667 9.66646ZM12.6667 6.9998H10C9.82319 6.9998 9.65362 6.92956 9.5286 6.80453C9.40357 6.67951 9.33333 6.50994 9.33333 6.33313C9.33333 6.15632 9.40357 5.98675 9.5286 5.86173C9.65362 5.7367 9.82319 5.66646 10 5.66646H12.6667C12.8435 5.66646 13.013 5.7367 13.1381 5.86173C13.2631 5.98675 13.3333 6.15632 13.3333 6.33313C13.3333 6.50994 13.2631 6.67951 13.1381 6.80453C13.013 6.92956 12.8435 6.9998 12.6667 6.9998Z" fill="#3250FF"/>
</svg>
